<?xml version="1.0" standalone="no"?>
 <!DOCTYPE svg PUBLIC "-//W3C//DTD SVG 1.1//EN" 
 "http://www.w3.org/Graphics/SVG/1.1/DTD/svg11.dtd"> 
<svg xmlns="http://www.w3.org/2000/svg" version="1.1" 
    width="15.1689cm" height="12.8651cm" viewBox="0 0 59720 50650 ">
<title>SVG Picture created as sample_for_svg-brd.svg date 2019/12/11 01:56:49 </title>
  <desc>Picture generated by PCBNEW </desc>
<g style="fill:#000000; fill-opacity:1;stroke:#000000; stroke-opacity:1;
stroke-linecap:round; stroke-linejoin:round; "
 transform="translate(0 0) scale(1 1)">
</g>
<g style="fill:#000000; fill-opacity:0.0; 
stroke:#000000; stroke-width:-0.000393701; stroke-opacity:1; 
stroke-linecap:round; stroke-linejoin:round;">
</g>
<g style="fill:#000000; fill-opacity:0.0; 
stroke:#000000; stroke-width:78.7402; stroke-opacity:1; 
stroke-linecap:round; stroke-linejoin:round;">
<circle cx="46622.3" cy="45009.8" r="433.071" /> 
<circle cx="6122.32" cy="37009.8" r="433.071" /> 
<circle cx="43122.3" cy="1009.84" r="433.071" /> 
<circle cx="3372.32" cy="3759.84" r="433.071" /> 
</g>
<g style="fill:#000000; fill-opacity:0.0; 
stroke:#000000; stroke-width:19.685; stroke-opacity:1; 
stroke-linecap:round; stroke-linejoin:round;">
<path d="M53122.3 50159.8 A860.232 860.232 0.0 0 0 54322.3 49959.8 " />
<path d="M59222.3 41359.8 A860.232 860.232 0.0 0 0 59022.3 40159.8 " />
<path d="M16622 9
L2122 1759
" />
<path d="M122.321 36009.8 A1750 1750 0.0 0 0 1872.32 37759.8 " />
<path d="M46622.3 2009.84 A2000 2000 0.0 0 0 44622.3 9.84291 " />
<path d="M2122.32 1759.84 A2000 2000 0.0 0 0 122.321 3759.84 " />
<path d="M122 36009
L122 3759
" />
<path d="M27372 41509
L1872 37759
" />
<path d="M38122 41509
L27372 41509
" />
<path d="M53122 50159
L38122 41509
" />
<path d="M59222 41359
L54322 49959
" />
<path d="M46622 33009
L59022 40159
" />
<path d="M46622 2009
L46622 33009
" />
<path d="M16622 9
L44622 9
" />
</g>
<g style="fill:#000000; fill-opacity:0.0; 
stroke:#000000; stroke-width:59.0551; stroke-opacity:1; 
stroke-linecap:round; stroke-linejoin:round;">
<path d="M52113 39895
L49357 44668
" />
<path d="M49357 44668
L54131 47424
" />
<path d="M52113 39895
L56886 42651
" />
<path d="M56886 42651
L54131 47424
" />
<path d="M46113 35245
L43357 40018
" />
<path d="M43357 40018
L48131 42774
" />
<path d="M46113 35245
L50886 38001
" />
<path d="M50886 38001
L48131 42774
" />
<path d="M28366 34003
L28366 39515
" />
<path d="M28366 39515
L33878 39515
" />
<path d="M28366 34003
L33878 34003
" />
<path d="M33878 34003
L33878 39515
" />
<path d="M35866 33003
L35866 38515
" />
<path d="M35866 38515
L41378 38515
" />
<path d="M35866 33003
L41378 33003
" />
<path d="M41378 33003
L41378 38515
" />
<path d="M32616 25503
L32616 31015
" />
<path d="M32616 31015
L38128 31015
" />
<path d="M32616 25503
L38128 25503
" />
<path d="M38128 25503
L38128 31015
" />
<path d="M40116 25503
L40116 31015
" />
<path d="M40116 31015
L45628 31015
" />
<path d="M40116 25503
L45628 25503
" />
<path d="M45628 25503
L45628 31015
" />
<path d="M25116 25503
L25116 31015
" />
<path d="M25116 31015
L30628 31015
" />
<path d="M25116 25503
L30628 25503
" />
<path d="M30628 25503
L30628 31015
" />
<path d="M17616 25503
L17616 31015
" />
<path d="M17616 31015
L23128 31015
" />
<path d="M17616 25503
L23128 25503
" />
<path d="M23128 25503
L23128 31015
" />
<path d="M8497 28311
L9923 33635
" />
<path d="M9923 33635
L15247 32208
" />
<path d="M8497 28311
L13821 26884
" />
<path d="M13821 26884
L15247 32208
" />
<path d="M1247 30311
L2673 35635
" />
<path d="M2673 35635
L7997 34208
" />
<path d="M1247 30311
L6571 28884
" />
<path d="M6571 28884
L7997 34208
" />
<path d="M32616 18003
L32616 23515
" />
<path d="M32616 23515
L38128 23515
" />
<path d="M32616 18003
L38128 18003
" />
<path d="M38128 18003
L38128 23515
" />
<path d="M40116 18003
L40116 23515
" />
<path d="M40116 23515
L45628 23515
" />
<path d="M40116 18003
L45628 18003
" />
<path d="M45628 18003
L45628 23515
" />
<path d="M25116 18003
L25116 23515
" />
<path d="M25116 23515
L30628 23515
" />
<path d="M25116 18003
L30628 18003
" />
<path d="M30628 18003
L30628 23515
" />
<path d="M17616 18003
L17616 23515
" />
<path d="M17616 23515
L23128 23515
" />
<path d="M17616 18003
L23128 18003
" />
<path d="M23128 18003
L23128 23515
" />
<path d="M8497 20561
L9923 25885
" />
<path d="M9923 25885
L15247 24458
" />
<path d="M8497 20561
L13821 19134
" />
<path d="M13821 19134
L15247 24458
" />
<path d="M1247 22561
L2673 27885
" />
<path d="M2673 27885
L7997 26458
" />
<path d="M1247 22561
L6571 21134
" />
<path d="M6571 21134
L7997 26458
" />
<path d="M32616 10503
L32616 16015
" />
<path d="M32616 16015
L38128 16015
" />
<path d="M32616 10503
L38128 10503
" />
<path d="M38128 10503
L38128 16015
" />
<path d="M40116 10503
L40116 16015
" />
<path d="M40116 16015
L45628 16015
" />
<path d="M40116 10503
L45628 10503
" />
<path d="M45628 10503
L45628 16015
" />
<path d="M25116 10503
L25116 16015
" />
<path d="M25116 16015
L30628 16015
" />
<path d="M25116 10503
L30628 10503
" />
<path d="M30628 10503
L30628 16015
" />
<path d="M17616 10503
L17616 16015
" />
<path d="M17616 16015
L23128 16015
" />
<path d="M17616 10503
L23128 10503
" />
<path d="M23128 10503
L23128 16015
" />
<path d="M8497 12811
L9923 18135
" />
<path d="M9923 18135
L15247 16708
" />
<path d="M8497 12811
L13821 11384
" />
<path d="M13821 11384
L15247 16708
" />
<path d="M1247 14811
L2673 20135
" />
<path d="M2673 20135
L7997 18708
" />
<path d="M1247 14811
L6571 13384
" />
<path d="M6571 13384
L7997 18708
" />
<path d="M40116 3003
L40116 8515
" />
<path d="M40116 8515
L45628 8515
" />
<path d="M40116 3003
L45628 3003
" />
<path d="M45628 3003
L45628 8515
" />
<path d="M32616 3003
L32616 8515
" />
<path d="M32616 8515
L38128 8515
" />
<path d="M32616 3003
L38128 3003
" />
<path d="M38128 3003
L38128 8515
" />
<path d="M25116 3003
L25116 8515
" />
<path d="M25116 8515
L30628 8515
" />
<path d="M25116 3003
L30628 3003
" />
<path d="M30628 3003
L30628 8515
" />
<path d="M17616 3003
L17616 8515
" />
<path d="M17616 8515
L23128 8515
" />
<path d="M17616 3003
L23128 3003
" />
<path d="M23128 3003
L23128 8515
" />
<path d="M8497 5061
L9923 10385
" />
<path d="M9923 10385
L15247 8958
" />
<path d="M8497 5061
L13821 3634
" />
<path d="M13821 3634
L15247 8958
" />
<path d="M1247 7061
L2673 12385
" />
<path d="M2673 12385
L7997 10958
" />
<path d="M1247 7061
L6571 5634
" />
<path d="M6571 5634
L7997 10958
" />
</g> 
</svg>
